<svg width="15" height="12" viewBox="0 0 15 12" fill="none" xmlns="http://www.w3.org/2000/svg">
<path d="M10.6 5.2C11.0418 5.2 11.4 5.55817 11.4 6C11.4 6.44183 11.0418 6.8 10.6 6.8V5.2ZM0.43429 6.56569C0.12187 6.25327 0.12187 5.74673 0.43429 5.43431L5.52546 0.343146C5.83788 0.0307264 6.34441 0.0307264 6.65683 0.343146C6.96925 0.655565 6.96925 1.1621 6.65683 1.47452L2.13135 6L6.65683 10.5255C6.96925 10.8379 6.96925 11.3444 6.65683 11.6569C6.34441 11.9693 5.83788 11.9693 5.52546 11.6569L0.43429 6.56569ZM10.6 6.8H0.999975V5.2H10.6V6.8Z" fill="white"/>
<rect x="13" width="2" height="12" rx="1" fill="white"/>
</svg>
