<svg width="12" height="15" viewBox="0 0 12 15" fill="none" xmlns="http://www.w3.org/2000/svg">
<path d="M5.99993 11.7141V7.42848M5.99993 7.42848L3.8571 8.85703M5.99993 7.42848L8.14276 8.85703M6.71421 1.00062C6.646 1 6.56941 1 6.48186 1H3.28582C2.48576 1 2.08543 1 1.77984 1.1557C1.51104 1.29266 1.29266 1.51104 1.1557 1.77984C1 2.08543 1 2.48576 1 3.28582V11.5714C1 12.3715 1 12.7713 1.1557 13.0769C1.29266 13.3457 1.51104 13.5645 1.77984 13.7014C2.08513 13.857 2.48498 13.857 3.2835 13.857L8.71639 13.857C9.51488 13.857 9.91415 13.857 10.2194 13.7014C10.4882 13.5645 10.7073 13.3457 10.8443 13.0769C10.9999 12.7716 10.9999 12.3723 10.9999 11.5738V5.51828C10.9999 5.43062 10.9998 5.35394 10.9992 5.28565M6.71421 1.00062C6.91823 1.00248 7.0473 1.00989 7.17051 1.03947C7.31628 1.07447 7.45552 1.13233 7.58333 1.21066C7.72745 1.29897 7.8512 1.42272 8.09811 1.66963L10.3306 3.90209C10.5776 4.14916 10.7005 4.27235 10.7888 4.41652C10.8672 4.54433 10.9251 4.6837 10.9601 4.82947C10.9897 4.95263 10.9972 5.08173 10.9992 5.28565M6.71421 1.00062V2.99997C6.71421 3.80004 6.71421 4.19979 6.86991 4.50537C7.00687 4.77417 7.22525 4.99314 7.49405 5.1301C7.79934 5.28565 8.19918 5.28565 8.99768 5.28565H10.9992M10.9992 5.28565H11" stroke="#F0F0F0" stroke-width="1.42855" stroke-linecap="round" stroke-linejoin="round"/>
</svg>
