<svg width="10" height="11" viewBox="0 0 10 11" fill="none" xmlns="http://www.w3.org/2000/svg">
<path d="M6.5 2.25V8.75C6.5 8.98233 6.5 9.09849 6.51921 9.19509C6.59812 9.59178 6.908 9.90205 7.30469 9.98096C7.40129 10.0002 7.51745 10.0002 7.74978 10.0002C7.9821 10.0002 8.09871 10.0002 8.19531 9.98096C8.592 9.90205 8.90205 9.59178 8.98096 9.19509C9 9.09934 9 8.98437 9 8.75612V2.24388C9 2.01562 9 1.90043 8.98096 1.80469C8.90205 1.408 8.59178 1.09812 8.19509 1.01921C8.09849 1 7.98233 1 7.75 1C7.51767 1 7.40129 1 7.30469 1.01921C6.908 1.09812 6.59812 1.408 6.51921 1.80469C6.5 1.90129 6.5 2.01767 6.5 2.25Z" fill="#F0F0F0"/>
<path d="M1 2.25V8.75C1 8.98233 1 9.09849 1.01921 9.19509C1.09812 9.59178 1.408 9.90205 1.80469 9.98096C1.90129 10.0002 2.01745 10.0002 2.24978 10.0002C2.4821 10.0002 2.59871 10.0002 2.69531 9.98096C3.092 9.90205 3.40205 9.59178 3.48096 9.19509C3.5 9.09934 3.5 8.98437 3.5 8.75612V2.24388C3.5 2.01562 3.5 1.90043 3.48096 1.80469C3.40205 1.408 3.09178 1.09812 2.69509 1.01921C2.59849 1 2.48233 1 2.25 1C2.01767 1 1.90129 1 1.80469 1.01921C1.408 1.09812 1.09812 1.408 1.01921 1.80469C1 1.90129 1 2.01767 1 2.25Z" fill="#F0F0F0"/>
<path d="M6.5 2.25V8.75C6.5 8.98233 6.5 9.09849 6.51921 9.19509C6.59812 9.59178 6.908 9.90205 7.30469 9.98096C7.40129 10.0002 7.51745 10.0002 7.74978 10.0002C7.9821 10.0002 8.09871 10.0002 8.19531 9.98096C8.592 9.90205 8.90205 9.59178 8.98096 9.19509C9 9.09934 9 8.98437 9 8.75612V2.24388C9 2.01562 9 1.90043 8.98096 1.80469C8.90205 1.408 8.59178 1.09812 8.19509 1.01921C8.09849 1 7.98233 1 7.75 1C7.51767 1 7.40129 1 7.30469 1.01921C6.908 1.09812 6.59812 1.408 6.51921 1.80469C6.5 1.90129 6.5 2.01767 6.5 2.25Z" stroke="#F0F0F0" stroke-linecap="round" stroke-linejoin="round"/>
<path d="M1 2.25V8.75C1 8.98233 1 9.09849 1.01921 9.19509C1.09812 9.59178 1.408 9.90205 1.80469 9.98096C1.90129 10.0002 2.01745 10.0002 2.24978 10.0002C2.4821 10.0002 2.59871 10.0002 2.69531 9.98096C3.092 9.90205 3.40205 9.59178 3.48096 9.19509C3.5 9.09934 3.5 8.98437 3.5 8.75612V2.24388C3.5 2.01562 3.5 1.90043 3.48096 1.80469C3.40205 1.408 3.09178 1.09812 2.69509 1.01921C2.59849 1 2.48233 1 2.25 1C2.01767 1 1.90129 1 1.80469 1.01921C1.408 1.09812 1.09812 1.408 1.01921 1.80469C1 1.90129 1 2.01767 1 2.25Z" stroke="#F0F0F0" stroke-linecap="round" stroke-linejoin="round"/>
</svg>
