<svg width="9" height="10" viewBox="0 0 9 10" fill="none" xmlns="http://www.w3.org/2000/svg">
<path d="M0 8.21455V1.29543C0 0.724883 0 0.439293 0.120063 0.270484C0.224853 0.123149 0.38637 0.0264146 0.565684 0.00328722C0.77106 -0.0232016 1.02295 0.111139 1.52602 0.37944L8.01269 3.839L8.01505 3.84004C8.57099 4.13655 8.84909 4.28487 8.94032 4.48256C9.01989 4.65501 9.01989 4.85408 8.94032 5.02653C8.84896 5.2245 8.57021 5.37342 8.01269 5.67077L1.52602 9.13033C1.02259 9.39882 0.771134 9.53264 0.565684 9.50614C0.38637 9.48302 0.224853 9.3863 0.120063 9.23897C0 9.07016 0 8.78509 0 8.21455Z" fill="#F0F0F0"/>
</svg>
