<svg width="120" height="22" viewBox="0 0 120 22" fill="none" xmlns="http://www.w3.org/2000/svg">
<path d="M6.89495 4.36375C10.2389 4.36375 12.7054 6.61678 12.7054 10.5536C12.7054 14.2533 10.2389 16.7435 6.89495 16.7435C4.85537 16.7435 3.47984 15.9135 2.74464 14.7514V21.3444H0.799927V4.50605H2.48377L2.74464 6.45076C3.55099 5.33611 4.85537 4.36375 6.89495 4.36375ZM6.70522 15.0123C9.10054 15.0123 10.7132 13.1861 10.7132 10.5536C10.7132 7.92116 9.10054 6.09502 6.70522 6.09502C4.33362 6.09502 2.72093 7.92116 2.72093 10.5062C2.72093 13.1624 4.33362 15.0123 6.70522 15.0123Z" fill="white"/>
<path d="M23.3943 10.5536V4.50605H25.339V16.6012H23.6552L23.3943 14.9885C22.6828 15.8897 21.5207 16.7435 19.5286 16.7435C16.8724 16.7435 14.7616 15.2494 14.7616 11.2414V4.50605H16.7064V11.1228C16.7064 13.6367 17.8447 14.9648 19.8606 14.9648C22.0662 14.9648 23.3943 13.281 23.3943 10.5536Z" fill="white"/>
<path d="M27.99 16.6012V0H29.9347V16.6012H27.99Z" fill="white"/>
<path d="M32.1008 12.6169H34.093C34.1641 14.0399 35.4211 15.0834 37.437 15.0834C39.1445 15.0834 40.354 14.3482 40.354 13.2336C40.354 11.7157 39.0259 11.5971 37.2235 11.3837C34.5199 11.0517 32.3617 10.5062 32.3617 7.99231C32.3617 5.78671 34.3776 4.34004 37.1049 4.36375C39.856 4.38747 41.8481 5.66813 42.0379 8.18204H40.0457C39.9034 6.9488 38.7651 6.02388 37.1049 6.02388C35.4211 6.02388 34.2827 6.73536 34.2827 7.85001C34.2827 9.17811 35.5634 9.34412 37.3184 9.55757C40.0694 9.88959 42.275 10.4113 42.275 13.0913C42.275 15.3443 40.1169 16.7435 37.437 16.7435C34.3064 16.7435 32.1483 15.2731 32.1008 12.6169Z" fill="white"/>
<path d="M50.007 16.7435C46.3785 16.7435 44.0069 14.2533 44.0069 10.5536C44.0069 6.87765 46.331 4.36375 49.7461 4.36375C53.1612 4.36375 55.3906 6.52191 55.4854 10.103C55.4854 10.3639 55.4617 10.6485 55.438 10.9331H46.0464V11.0991C46.1176 13.3996 47.5643 15.0123 49.8647 15.0123C51.5723 15.0123 52.9004 14.111 53.3035 12.5458H55.272C54.7977 14.9648 52.8055 16.7435 50.007 16.7435ZM46.165 9.32041H53.3984C53.2087 7.23339 51.7857 6.07131 49.7699 6.07131C47.9911 6.07131 46.3547 7.35197 46.165 9.32041Z" fill="white"/>
<path d="M70.6318 4.36375C73.9758 4.36375 76.4422 6.61678 76.4422 10.5536C76.4422 14.2533 73.9758 16.7435 70.6318 16.7435C68.5922 16.7435 67.2167 15.9135 66.4815 14.7514V21.3444H64.5368V4.50605H66.2206L66.4815 6.45076C67.2878 5.33611 68.5922 4.36375 70.6318 4.36375ZM70.4421 15.0123C72.8374 15.0123 74.4501 13.1861 74.4501 10.5536C74.4501 7.92116 72.8374 6.09502 70.4421 6.09502C68.0705 6.09502 66.4578 7.92116 66.4578 10.5062C66.4578 13.1624 68.0705 15.0123 70.4421 15.0123Z" fill="white"/>
<path d="M87.1311 10.5536V4.50605H89.0758V16.6012H87.392L87.1311 14.9885C86.4196 15.8897 85.2576 16.7435 83.2654 16.7435C80.6092 16.7435 78.4985 15.2494 78.4985 11.2414V4.50605H80.4432V11.1228C80.4432 13.6367 81.5816 14.9648 83.5974 14.9648C85.803 14.9648 87.1311 13.281 87.1311 10.5536Z" fill="white"/>
<path d="M91.7269 16.6012V8.52837e-07H93.6716V16.6012H91.7269Z" fill="white"/>
<path d="M95.8377 12.6169H97.8298C97.901 14.0399 99.1579 15.0834 101.174 15.0834C102.881 15.0834 104.091 14.3482 104.091 13.2336C104.091 11.7157 102.763 11.5971 100.96 11.3837C98.2567 11.0517 96.0986 10.5062 96.0986 7.99231C96.0986 5.78672 98.1144 4.34004 100.842 4.36375C103.593 4.38747 105.585 5.66814 105.775 8.18204H103.783C103.64 6.9488 102.502 6.02388 100.842 6.02388C99.1579 6.02388 98.0196 6.73536 98.0196 7.85001C98.0196 9.17811 99.3002 9.34412 101.055 9.55757C103.806 9.88959 106.012 10.4113 106.012 13.0913C106.012 15.3443 103.854 16.7435 101.174 16.7435C98.0433 16.7435 95.8851 15.2731 95.8377 12.6169Z" fill="white"/>
<path d="M113.744 16.7435C110.115 16.7435 107.744 14.2533 107.744 10.5536C107.744 6.87765 110.068 4.36375 113.483 4.36375C116.898 4.36375 119.127 6.52191 119.222 10.103C119.222 10.3639 119.199 10.6485 119.175 10.9331H109.783V11.0991C109.854 13.3996 111.301 15.0123 113.602 15.0123C115.309 15.0123 116.637 14.111 117.04 12.5458H119.009C118.534 14.9648 116.542 16.7435 113.744 16.7435ZM109.902 9.32041H117.135C116.946 7.23339 115.523 6.07131 113.507 6.07131C111.728 6.07131 110.092 7.35197 109.902 9.32041Z" fill="white"/>
<path d="M58.2461 15.3206C58.2461 14.7356 58.3884 14.3245 58.673 14.0873C58.9576 13.8502 59.2976 13.7316 59.6928 13.7316C60.1039 13.7316 60.4517 13.8502 60.7363 14.0873C61.0367 14.3245 61.1869 14.7356 61.1869 15.3206C61.1869 15.8898 61.0367 16.3008 60.7363 16.5538C60.4517 16.8068 60.1039 16.9333 59.6928 16.9333C59.2976 16.9333 58.9576 16.8068 58.673 16.5538C58.3884 16.3008 58.2461 15.8898 58.2461 15.3206ZM58.2461 5.1701C58.2461 4.56929 58.3884 4.15031 58.673 3.91315C58.9576 3.67599 59.2976 3.55741 59.6928 3.55741C60.1039 3.55741 60.4517 3.67599 60.7363 3.91315C61.0367 4.15031 61.1869 4.56929 61.1869 5.1701C61.1869 5.73928 61.0367 6.15036 60.7363 6.40333C60.4517 6.6563 60.1039 6.78279 59.6928 6.78279C59.2976 6.78279 58.9576 6.6563 58.673 6.40333C58.3884 6.15036 58.2461 5.73928 58.2461 5.1701Z" fill="#FF6200"/>
</svg>
